<?xml version="1.0" encoding="UTF-8"?>
<!DOCTYPE svg PUBLIC "-//W3C//DTD SVG 1.1//EN" "http://www.w3.org/Graphics/SVG/1.1/DTD/svg11.dtd">
<svg xmlns="http://www.w3.org/2000/svg" version="1.1" width="1024px" height="1024px" style="shape-rendering:geometricPrecision; text-rendering:geometricPrecision; image-rendering:optimizeQuality; fill-rule:evenodd; clip-rule:evenodd" xmlns:xlink="http://www.w3.org/1999/xlink">
<g><path fill="#ffffff" stroke="#ffffff" stroke-width="0.5" d="M 448.95,268.01 c 21.85,-70.66 43.69,-141.29 65.52,-211.9 c 0.91,1.87 1.63,3.82 2.15,5.85 c 20.21,68.52 40.38,137.05 60.5,205.59 c -0.04,1.01 -0.58,1.49 -1.6,1.44 c -14.01,-0.02 -28.03,-0.03 -42.04,-0.03 c -0.89,-0.14 -1.65,0.1 -2.27,0.71 c -0.02,80.59 -0.14,161.16 -0.36,241.74 c -5.94,6.31 -12.1,12.39 -18.48,18.24 c -0.7,-0.02 -1.27,-0.3 -1.72,-0.84 c -2.68,-2.77 -16.52,-15.76 -16.86,-18.27 c -0.04,-80.26 -0.09,-160.53 -0.13,-240.8 c -0.56,-0.62 -1.27,-0.88 -2.14,-0.78 c -13.97,0.05 -27.94,0.01 -41.9,-0.14 c -0.38,-0.15 -0.6,-0.42 -0.67,-0.81 Z M 37.93,559 c 0,-13.85 0,-27.71 0,-41.56 c 0.16,-1.29 0.66,-1.44 1.49,-0.46 c 6.6,9.75 13.2,19.51 19.78,29.28 c 0.34,0.43 0.78,0.65 1.33,0.65 c 16.56,-5.06 33.11,-10.17 49.65,-15.32 c 0.56,-0.39 0.95,-0.91 1.17,-1.56 c 11.63,-41.44 37.29,-70.56 76.97,-87.36 c 30.73,-12.85 62,-16.74 95.11,-15.8 c 0.47,-0.15 0.85,-0.42 1.14,-0.81 c 11.25,-13.96 22.58,-27.83 34,-41.62 c 0.33,0.26 0.51,0.61 0.53,1.04 c 0.12,15.68 0.15,31.36 0.08,47.04 c -0.17,1.99 1.24,0.67 1.92,0.12 c 48.86,-46.8 97.71,-93.62 146.55,-140.44 c 0.47,-0.37 1.54,-1.44 2.03,-0.52 c 0.02,32.82 -0.04,65.64 -0.17,98.46 c -1.31,1.39 -2.81,2.58 -4.49,3.56 c -24.86,16.73 -49.7,33.49 -74.52,50.27 c -0.69,1.09 -1.11,2.28 -1.25,3.57 c -3.47,21.62 -6.96,43.25 -10.45,64.87 c -0.21,0.69 -0.63,1.21 -1.26,1.56 c -19.18,10.53 -38.36,21.04 -57.55,31.54 c -1.11,0.75 -1.89,0.5 -2.32,-0.76 c -6.62,-38.73 -38.92,-58.4 -76.17,-60.5 c -40.78,-1.32 -79.33,12.84 -91.21,55.41 c -0.71,3.01 -2.41,8.86 -2.14,11.75 c 83.9,92.4 167.9,184.71 252.03,276.94 c 0.31,0.13 0.6,0.08 0.86,-0.13 c 22.64,-22.57 45.19,-45.23 67.65,-67.98 c 0.87,-0.96 1.78,-0.99 2.71,-0.11 c 10.94,11.06 21.88,22.1 32.83,33.14 c 0.75,0.8 0.75,1.6 0.02,2.41 c -13.43,14.58 -26.83,29.19 -40.2,43.81 c -0.37,0.47 -0.51,1 -0.39,1.59 c 15.95,17.52 32.06,34.9 48.31,52.13 c 0.79,0.15 1.41,-0.12 1.85,-0.8 c 15.43,-17.87 30.92,-35.68 46.47,-53.45 c 0.61,-0.69 0.89,-1.49 0.84,-2.4 c -47.63,-52.99 -95.41,-105.85 -143.33,-158.58 c -0.24,-1.06 0.08,-1.94 0.96,-2.64 c 14.62,-15.7 29.16,-31.48 43.62,-47.33 c 0.47,-1.74 0.54,-3.52 0.2,-5.32 c -2.96,-34.36 -32.44,-54.76 -61.56,-67.23 c -5.53,-2.23 -11.09,-4.29 -16.69,-6.18 c 0.04,-0.7 0.39,-1.21 1.05,-1.53 c 10.41,-6.88 20.82,-13.78 31.22,-20.7 c 0.64,-0.36 1.12,-0.87 1.45,-1.52 c 3.88,-22.64 7.54,-45.32 11,-68.03 c 0.05,-0.81 0.33,-1.52 0.83,-2.14 c 13.59,-10.37 27.28,-20.6 41.07,-30.69 c 0.32,-0.29 0.64,-0.3 0.96,-0.03 c 0.19,34.57 0.33,69.14 0.43,103.71 c 12.57,13.99 25.28,27.88 38.13,41.65 c 0.49,0.65 1.14,0.97 1.95,0.96 c 2.77,-2.55 5.43,-5.24 7.96,-8.08 c 10.62,-11.39 21.12,-22.88 31.48,-34.46 c 0.1,-34.57 0.22,-69.14 0.37,-103.71 c 0.25,-0.31 0.54,-0.35 0.87,-0.12 c 13.78,9.82 28.21,20.76 41.62,31.17 c 3.8,23.22 7.59,46.45 11.39,69.67 c 0.16,0.48 0.44,0.86 0.84,1.15 c 10.8,7.18 21.61,14.36 32.42,21.53 c 0.4,0.31 0.55,0.71 0.44,1.19 c -6.34,2.15 -12.63,4.52 -18.84,7.12 c -26.95,11.9 -53.91,30.94 -58.88,62.08 c 0.08,2.65 -1.39,7.44 0.36,9.61 c 14.71,15.93 29.43,31.85 44.15,47.77 c 0.52,0.79 0.54,1.6 0.08,2.43 c -16.82,19.19 -33.63,38.39 -50.41,57.6 c -0.91,1.09 -1.85,1.13 -2.82,0.13 c -8.53,-9.74 -17.1,-19.45 -25.71,-29.11 c -0.8,-0.95 -0.83,-1.92 -0.08,-2.91 c 6.24,-8.34 12.47,-16.67 18.7,-25.02 c 0.58,-0.72 0.79,-1.53 0.64,-2.44 c -11.1,-12.55 -22.29,-25.03 -33.55,-37.44 c -1.23,-0.66 -2.19,-0.34 -2.89,0.93 c -10.75,11.99 -21.53,23.94 -32.35,35.86 c -0.54,1.13 -0.34,2.13 0.6,2.99 c 48.65,50.19 97.37,100.3 146.16,150.34 c 0.82,0.18 1.47,-0.09 1.95,-0.79 c 82.49,-90.53 164.98,-181.05 247.48,-271.57 c 1.07,-0.91 1.78,-2.04 2.15,-3.37 c -2.97,-30.83 -22.35,-55.42 -52.21,-64.26 c -47.48,-13.94 -108.68,-0.08 -117.8,55.91 c -0.19,0.48 -0.55,0.72 -1.07,0.71 c -19.71,-10.5 -39.35,-21.15 -58.92,-31.97 c -0.77,-0.62 -1.21,-1.43 -1.31,-2.43 c -3.49,-21.65 -6.96,-43.3 -10.41,-64.95 c -0.08,-0.77 -0.33,-1.49 -0.74,-2.14 c -25.96,-17.72 -51.98,-35.33 -78.09,-52.84 c -0.97,-0.76 -1.4,-1.77 -1.29,-3.02 c -0.08,-32.28 0.02,-64.55 0.31,-96.8 c 0.55,-0.23 1.04,-0.11 1.45,0.37 c 49.13,47.12 98.29,94.22 147.46,141.29 c 0.71,0.23 1.05,-0.06 1.02,-0.85 c 0.02,-15.35 0.02,-30.7 0.01,-46.05 c 0.22,-0.68 -0.36,-1.76 0.6,-2.03 c 11.68,14.12 23.36,28.24 35.04,42.36 c 75.15,-0.64 151.28,22.66 172.46,103.65 c 0.15,0.45 0.44,0.8 0.85,1.04 c 16.26,5.05 32.52,10.13 48.76,15.26 c 0.56,0.18 1.13,0.17 1.69,-0.01 c 7.07,-9.94 13.97,-20.01 20.7,-30.22 c 0.35,-0.36 0.7,-0.36 1.06,-0.01 c 0.15,14.33 0.21,28.66 0.17,43.01 c 0.12,0.96 -0.18,1.73 -0.91,2.31 c -33.62,0.05 -67.23,0.11 -100.85,0.2 c -0.49,0.13 -0.9,0.38 -1.24,0.76 c -121.29,133.03 -242.55,266.08 -363.79,399.16 c -3.08,1.41 -4.03,3.45 -6.35,5.71 c -0.75,0.33 -1.39,0.19 -1.93,-0.43 c -9.59,-11.37 -19.38,-22.57 -29.35,-33.6 c -112.71,-123.59 -225.38,-247.21 -338.01,-370.88 c -0.69,-0.54 -1.47,-0.82 -2.35,-0.84 c -34,0 -68.01,0.01 -102.02,0.02 c -1.84,0.18 -1.56,-1.73 -1.56,-2.94 Z"/></g>
</svg>
